<mxfile host="app.diagrams.net" agent="Mozilla/5.0 (Windows NT 10.0; Win64; x64) AppleWebKit/537.36 (KHTML, like Gecko) Chrome/139.0.0.0 Safari/537.36" version="24.7.17">
  <diagram name="Page-1" id="SpB_s-RXPsUYOVUqMKhw">
    <mxGraphModel dx="724" dy="360" grid="1" gridSize="10" guides="1" tooltips="1" connect="1" arrows="1" fold="1" page="1" pageScale="1" pageWidth="850" pageHeight="1100" math="0" shadow="0">
      <root>
        <mxCell id="0" />
        <mxCell id="1" parent="0" />
        <mxCell id="dDjrmKRI1o8xEKc86vOI-27" style="edgeStyle=orthogonalEdgeStyle;rounded=0;orthogonalLoop=1;jettySize=auto;html=1;fillColor=#f8cecc;strokeColor=#b85450;" edge="1" parent="1" source="dDjrmKRI1o8xEKc86vOI-1" target="dDjrmKRI1o8xEKc86vOI-24">
          <mxGeometry relative="1" as="geometry" />
        </mxCell>
        <mxCell id="dDjrmKRI1o8xEKc86vOI-1" value="User A" style="rounded=0;whiteSpace=wrap;html=1;" vertex="1" parent="1">
          <mxGeometry x="20" y="140" width="120" height="60" as="geometry" />
        </mxCell>
        <mxCell id="dDjrmKRI1o8xEKc86vOI-28" style="edgeStyle=orthogonalEdgeStyle;rounded=0;orthogonalLoop=1;jettySize=auto;html=1;fillColor=#f8cecc;strokeColor=#b85450;" edge="1" parent="1" source="dDjrmKRI1o8xEKc86vOI-2" target="dDjrmKRI1o8xEKc86vOI-24">
          <mxGeometry relative="1" as="geometry" />
        </mxCell>
        <mxCell id="dDjrmKRI1o8xEKc86vOI-2" value="User B" style="rounded=0;whiteSpace=wrap;html=1;" vertex="1" parent="1">
          <mxGeometry x="10" y="330" width="120" height="60" as="geometry" />
        </mxCell>
        <mxCell id="dDjrmKRI1o8xEKc86vOI-3" value="Web Sockets" style="rounded=1;whiteSpace=wrap;html=1;" vertex="1" parent="1">
          <mxGeometry x="280" y="40" width="120" height="60" as="geometry" />
        </mxCell>
        <mxCell id="dDjrmKRI1o8xEKc86vOI-6" value="" style="shape=cylinder3;whiteSpace=wrap;html=1;boundedLbl=1;backgroundOutline=1;size=15;" vertex="1" parent="1">
          <mxGeometry x="230" y="125" width="240" height="360" as="geometry" />
        </mxCell>
        <mxCell id="dDjrmKRI1o8xEKc86vOI-7" value="Web socket handler" style="rounded=0;whiteSpace=wrap;html=1;" vertex="1" parent="1">
          <mxGeometry x="300" y="210" width="120" height="60" as="geometry" />
        </mxCell>
        <mxCell id="dDjrmKRI1o8xEKc86vOI-8" value="Web socket handler" style="rounded=0;whiteSpace=wrap;html=1;" vertex="1" parent="1">
          <mxGeometry x="300" y="290" width="120" height="60" as="geometry" />
        </mxCell>
        <mxCell id="dDjrmKRI1o8xEKc86vOI-9" value="Web socket handler" style="rounded=0;whiteSpace=wrap;html=1;" vertex="1" parent="1">
          <mxGeometry x="300" y="380" width="120" height="60" as="geometry" />
        </mxCell>
        <mxCell id="dDjrmKRI1o8xEKc86vOI-21" style="edgeStyle=orthogonalEdgeStyle;rounded=0;orthogonalLoop=1;jettySize=auto;html=1;" edge="1" parent="1" source="dDjrmKRI1o8xEKc86vOI-10" target="dDjrmKRI1o8xEKc86vOI-18">
          <mxGeometry relative="1" as="geometry" />
        </mxCell>
        <mxCell id="dDjrmKRI1o8xEKc86vOI-10" value="message service" style="rounded=1;whiteSpace=wrap;html=1;" vertex="1" parent="1">
          <mxGeometry x="590" y="270" width="120" height="60" as="geometry" />
        </mxCell>
        <mxCell id="dDjrmKRI1o8xEKc86vOI-11" value="session service" style="rounded=1;whiteSpace=wrap;html=1;" vertex="1" parent="1">
          <mxGeometry x="730" y="270" width="120" height="60" as="geometry" />
        </mxCell>
        <mxCell id="dDjrmKRI1o8xEKc86vOI-14" value="" style="shape=doubleArrow;direction=south;whiteSpace=wrap;html=1;rotation=90;" vertex="1" parent="1">
          <mxGeometry x="710" y="290" width="20" height="30" as="geometry" />
        </mxCell>
        <mxCell id="dDjrmKRI1o8xEKc86vOI-16" style="edgeStyle=orthogonalEdgeStyle;rounded=0;orthogonalLoop=1;jettySize=auto;html=1;entryX=0.583;entryY=0;entryDx=0;entryDy=0;entryPerimeter=0;fillColor=#dae8fc;strokeColor=#6c8ebf;" edge="1" parent="1" source="dDjrmKRI1o8xEKc86vOI-1" target="dDjrmKRI1o8xEKc86vOI-10">
          <mxGeometry relative="1" as="geometry" />
        </mxCell>
        <mxCell id="dDjrmKRI1o8xEKc86vOI-17" style="edgeStyle=orthogonalEdgeStyle;rounded=0;orthogonalLoop=1;jettySize=auto;html=1;entryX=0.603;entryY=0.994;entryDx=0;entryDy=0;entryPerimeter=0;fillColor=#dae8fc;strokeColor=#6c8ebf;" edge="1" parent="1" source="dDjrmKRI1o8xEKc86vOI-2" target="dDjrmKRI1o8xEKc86vOI-10">
          <mxGeometry relative="1" as="geometry" />
        </mxCell>
        <mxCell id="dDjrmKRI1o8xEKc86vOI-18" value="Relay service" style="rounded=1;whiteSpace=wrap;html=1;" vertex="1" parent="1">
          <mxGeometry x="560" y="460" width="120" height="60" as="geometry" />
        </mxCell>
        <mxCell id="dDjrmKRI1o8xEKc86vOI-19" value="user DB" style="shape=datastore;whiteSpace=wrap;html=1;" vertex="1" parent="1">
          <mxGeometry x="770" y="390" width="60" height="60" as="geometry" />
        </mxCell>
        <mxCell id="dDjrmKRI1o8xEKc86vOI-20" style="edgeStyle=orthogonalEdgeStyle;rounded=0;orthogonalLoop=1;jettySize=auto;html=1;entryX=0.333;entryY=0;entryDx=0;entryDy=0;entryPerimeter=0;" edge="1" parent="1" source="dDjrmKRI1o8xEKc86vOI-11" target="dDjrmKRI1o8xEKc86vOI-19">
          <mxGeometry relative="1" as="geometry" />
        </mxCell>
        <mxCell id="dDjrmKRI1o8xEKc86vOI-22" value="un seen message" style="shape=datastore;whiteSpace=wrap;html=1;" vertex="1" parent="1">
          <mxGeometry x="600" y="550" width="60" height="60" as="geometry" />
        </mxCell>
        <mxCell id="dDjrmKRI1o8xEKc86vOI-23" style="edgeStyle=orthogonalEdgeStyle;rounded=0;orthogonalLoop=1;jettySize=auto;html=1;entryX=0.333;entryY=0.167;entryDx=0;entryDy=0;entryPerimeter=0;" edge="1" parent="1" source="dDjrmKRI1o8xEKc86vOI-18" target="dDjrmKRI1o8xEKc86vOI-22">
          <mxGeometry relative="1" as="geometry" />
        </mxCell>
        <mxCell id="dDjrmKRI1o8xEKc86vOI-24" value="lastseenn service" style="rounded=1;whiteSpace=wrap;html=1;" vertex="1" parent="1">
          <mxGeometry x="500" y="110" width="120" height="60" as="geometry" />
        </mxCell>
        <mxCell id="dDjrmKRI1o8xEKc86vOI-25" value="Time stamp" style="shape=datastore;whiteSpace=wrap;html=1;" vertex="1" parent="1">
          <mxGeometry x="700" y="70" width="60" height="60" as="geometry" />
        </mxCell>
        <mxCell id="dDjrmKRI1o8xEKc86vOI-26" style="edgeStyle=orthogonalEdgeStyle;rounded=0;orthogonalLoop=1;jettySize=auto;html=1;entryX=0.106;entryY=0.394;entryDx=0;entryDy=0;entryPerimeter=0;" edge="1" parent="1" source="dDjrmKRI1o8xEKc86vOI-24" target="dDjrmKRI1o8xEKc86vOI-25">
          <mxGeometry relative="1" as="geometry" />
        </mxCell>
        <mxCell id="dDjrmKRI1o8xEKc86vOI-30" value="Desktop" style="rounded=0;whiteSpace=wrap;html=1;" vertex="1" parent="1">
          <mxGeometry x="30" y="720" width="120" height="60" as="geometry" />
        </mxCell>
        <mxCell id="dDjrmKRI1o8xEKc86vOI-34" style="edgeStyle=orthogonalEdgeStyle;rounded=0;orthogonalLoop=1;jettySize=auto;html=1;entryX=0;entryY=0.5;entryDx=0;entryDy=0;" edge="1" parent="1" source="dDjrmKRI1o8xEKc86vOI-31" target="dDjrmKRI1o8xEKc86vOI-33">
          <mxGeometry relative="1" as="geometry" />
        </mxCell>
        <mxCell id="dDjrmKRI1o8xEKc86vOI-31" value="Assert service" style="rounded=1;whiteSpace=wrap;html=1;" vertex="1" parent="1">
          <mxGeometry x="365" y="710" width="120" height="60" as="geometry" />
        </mxCell>
        <mxCell id="dDjrmKRI1o8xEKc86vOI-32" style="edgeStyle=orthogonalEdgeStyle;rounded=0;orthogonalLoop=1;jettySize=auto;html=1;entryX=0.017;entryY=0.628;entryDx=0;entryDy=0;entryPerimeter=0;" edge="1" parent="1" source="dDjrmKRI1o8xEKc86vOI-30" target="dDjrmKRI1o8xEKc86vOI-31">
          <mxGeometry relative="1" as="geometry" />
        </mxCell>
        <mxCell id="dDjrmKRI1o8xEKc86vOI-33" value="Blob storage(s3 bucket)" style="rounded=1;whiteSpace=wrap;html=1;" vertex="1" parent="1">
          <mxGeometry x="600" y="710" width="120" height="60" as="geometry" />
        </mxCell>
        <mxCell id="dDjrmKRI1o8xEKc86vOI-39" style="edgeStyle=orthogonalEdgeStyle;rounded=0;orthogonalLoop=1;jettySize=auto;html=1;entryX=0;entryY=0.5;entryDx=0;entryDy=0;" edge="1" parent="1" source="dDjrmKRI1o8xEKc86vOI-35" target="dDjrmKRI1o8xEKc86vOI-36">
          <mxGeometry relative="1" as="geometry" />
        </mxCell>
        <mxCell id="dDjrmKRI1o8xEKc86vOI-35" value="" style="html=1;verticalLabelPosition=bottom;align=center;labelBackgroundColor=#ffffff;verticalAlign=top;strokeWidth=2;strokeColor=#0080F0;shadow=0;dashed=0;shape=mxgraph.ios7.icons.smartphone;" vertex="1" parent="1">
          <mxGeometry x="60" y="900" width="18" height="30" as="geometry" />
        </mxCell>
        <mxCell id="dDjrmKRI1o8xEKc86vOI-44" style="edgeStyle=orthogonalEdgeStyle;rounded=0;orthogonalLoop=1;jettySize=auto;html=1;" edge="1" parent="1" source="dDjrmKRI1o8xEKc86vOI-36" target="dDjrmKRI1o8xEKc86vOI-41">
          <mxGeometry relative="1" as="geometry" />
        </mxCell>
        <mxCell id="dDjrmKRI1o8xEKc86vOI-36" value="Group service" style="rounded=1;whiteSpace=wrap;html=1;" vertex="1" parent="1">
          <mxGeometry x="280" y="880" width="120" height="60" as="geometry" />
        </mxCell>
        <mxCell id="dDjrmKRI1o8xEKc86vOI-40" value="" style="html=1;verticalLabelPosition=bottom;align=center;labelBackgroundColor=#ffffff;verticalAlign=top;strokeWidth=2;strokeColor=#0080F0;shadow=0;dashed=0;shape=mxgraph.ios7.icons.smartphone;" vertex="1" parent="1">
          <mxGeometry x="620" y="830" width="18" height="30" as="geometry" />
        </mxCell>
        <mxCell id="dDjrmKRI1o8xEKc86vOI-41" value="desktop" style="sketch=0;outlineConnect=0;gradientColor=none;fontColor=#545B64;strokeColor=none;fillColor=#879196;dashed=0;verticalLabelPosition=bottom;verticalAlign=top;align=center;html=1;fontSize=12;fontStyle=0;aspect=fixed;shape=mxgraph.aws4.illustration_desktop;pointerEvents=1" vertex="1" parent="1">
          <mxGeometry x="590" y="920" width="100" height="91" as="geometry" />
        </mxCell>
        <mxCell id="dDjrmKRI1o8xEKc86vOI-42" value="" style="html=1;verticalLabelPosition=bottom;align=center;labelBackgroundColor=#ffffff;verticalAlign=top;strokeWidth=2;strokeColor=#0080F0;shadow=0;dashed=0;shape=mxgraph.ios7.icons.smartphone;" vertex="1" parent="1">
          <mxGeometry x="642" y="1070" width="18" height="30" as="geometry" />
        </mxCell>
        <mxCell id="dDjrmKRI1o8xEKc86vOI-43" style="edgeStyle=orthogonalEdgeStyle;rounded=0;orthogonalLoop=1;jettySize=auto;html=1;entryX=-0.056;entryY=0.767;entryDx=0;entryDy=0;entryPerimeter=0;" edge="1" parent="1" source="dDjrmKRI1o8xEKc86vOI-36" target="dDjrmKRI1o8xEKc86vOI-40">
          <mxGeometry relative="1" as="geometry" />
        </mxCell>
        <mxCell id="dDjrmKRI1o8xEKc86vOI-45" style="edgeStyle=orthogonalEdgeStyle;rounded=0;orthogonalLoop=1;jettySize=auto;html=1;entryX=-0.019;entryY=0.589;entryDx=0;entryDy=0;entryPerimeter=0;" edge="1" parent="1" source="dDjrmKRI1o8xEKc86vOI-36" target="dDjrmKRI1o8xEKc86vOI-42">
          <mxGeometry relative="1" as="geometry" />
        </mxCell>
        <mxCell id="dDjrmKRI1o8xEKc86vOI-46" value="" style="image;html=1;image=img/lib/clip_art/computers/Database_Minus_128x128.png" vertex="1" parent="1">
          <mxGeometry x="190" y="1220" width="80" height="80" as="geometry" />
        </mxCell>
        <mxCell id="dDjrmKRI1o8xEKc86vOI-47" value="Data Base Schema" style="text;html=1;align=center;verticalAlign=middle;whiteSpace=wrap;rounded=0;" vertex="1" parent="1">
          <mxGeometry x="310" y="1240" width="160" height="30" as="geometry" />
        </mxCell>
        <mxCell id="dDjrmKRI1o8xEKc86vOI-48" value="" style="shape=table;startSize=0;container=1;collapsible=0;childLayout=tableLayout;fontSize=16;" vertex="1" parent="1">
          <mxGeometry x="120" y="1320" width="330" height="240" as="geometry" />
        </mxCell>
        <mxCell id="dDjrmKRI1o8xEKc86vOI-49" value="" style="shape=tableRow;horizontal=0;startSize=0;swimlaneHead=0;swimlaneBody=0;strokeColor=inherit;top=0;left=0;bottom=0;right=0;collapsible=0;dropTarget=0;fillColor=none;points=[[0,0.5],[1,0.5]];portConstraint=eastwest;fontSize=16;" vertex="1" parent="dDjrmKRI1o8xEKc86vOI-48">
          <mxGeometry width="330" height="80" as="geometry" />
        </mxCell>
        <mxCell id="dDjrmKRI1o8xEKc86vOI-50" value="user_id" style="shape=partialRectangle;html=1;whiteSpace=wrap;connectable=0;strokeColor=inherit;overflow=hidden;fillColor=none;top=0;left=0;bottom=0;right=0;pointerEvents=1;fontSize=16;" vertex="1" parent="dDjrmKRI1o8xEKc86vOI-49">
          <mxGeometry width="110" height="80" as="geometry">
            <mxRectangle width="110" height="80" as="alternateBounds" />
          </mxGeometry>
        </mxCell>
        <mxCell id="dDjrmKRI1o8xEKc86vOI-51" value="username" style="shape=partialRectangle;html=1;whiteSpace=wrap;connectable=0;strokeColor=inherit;overflow=hidden;fillColor=none;top=0;left=0;bottom=0;right=0;pointerEvents=1;fontSize=16;" vertex="1" parent="dDjrmKRI1o8xEKc86vOI-49">
          <mxGeometry x="110" width="110" height="80" as="geometry">
            <mxRectangle width="110" height="80" as="alternateBounds" />
          </mxGeometry>
        </mxCell>
        <mxCell id="dDjrmKRI1o8xEKc86vOI-52" value="usercontact" style="shape=partialRectangle;html=1;whiteSpace=wrap;connectable=0;strokeColor=inherit;overflow=hidden;fillColor=none;top=0;left=0;bottom=0;right=0;pointerEvents=1;fontSize=16;" vertex="1" parent="dDjrmKRI1o8xEKc86vOI-49">
          <mxGeometry x="220" width="110" height="80" as="geometry">
            <mxRectangle width="110" height="80" as="alternateBounds" />
          </mxGeometry>
        </mxCell>
        <mxCell id="dDjrmKRI1o8xEKc86vOI-53" value="" style="shape=tableRow;horizontal=0;startSize=0;swimlaneHead=0;swimlaneBody=0;strokeColor=inherit;top=0;left=0;bottom=0;right=0;collapsible=0;dropTarget=0;fillColor=none;points=[[0,0.5],[1,0.5]];portConstraint=eastwest;fontSize=16;" vertex="1" parent="dDjrmKRI1o8xEKc86vOI-48">
          <mxGeometry y="80" width="330" height="80" as="geometry" />
        </mxCell>
        <mxCell id="dDjrmKRI1o8xEKc86vOI-54" value="" style="shape=partialRectangle;html=1;whiteSpace=wrap;connectable=0;strokeColor=inherit;overflow=hidden;fillColor=none;top=0;left=0;bottom=0;right=0;pointerEvents=1;fontSize=16;" vertex="1" parent="dDjrmKRI1o8xEKc86vOI-53">
          <mxGeometry width="110" height="80" as="geometry">
            <mxRectangle width="110" height="80" as="alternateBounds" />
          </mxGeometry>
        </mxCell>
        <mxCell id="dDjrmKRI1o8xEKc86vOI-55" value="" style="shape=partialRectangle;html=1;whiteSpace=wrap;connectable=0;strokeColor=inherit;overflow=hidden;fillColor=none;top=0;left=0;bottom=0;right=0;pointerEvents=1;fontSize=16;" vertex="1" parent="dDjrmKRI1o8xEKc86vOI-53">
          <mxGeometry x="110" width="110" height="80" as="geometry">
            <mxRectangle width="110" height="80" as="alternateBounds" />
          </mxGeometry>
        </mxCell>
        <mxCell id="dDjrmKRI1o8xEKc86vOI-56" value="" style="shape=partialRectangle;html=1;whiteSpace=wrap;connectable=0;strokeColor=inherit;overflow=hidden;fillColor=none;top=0;left=0;bottom=0;right=0;pointerEvents=1;fontSize=16;" vertex="1" parent="dDjrmKRI1o8xEKc86vOI-53">
          <mxGeometry x="220" width="110" height="80" as="geometry">
            <mxRectangle width="110" height="80" as="alternateBounds" />
          </mxGeometry>
        </mxCell>
        <mxCell id="dDjrmKRI1o8xEKc86vOI-57" value="" style="shape=tableRow;horizontal=0;startSize=0;swimlaneHead=0;swimlaneBody=0;strokeColor=inherit;top=0;left=0;bottom=0;right=0;collapsible=0;dropTarget=0;fillColor=none;points=[[0,0.5],[1,0.5]];portConstraint=eastwest;fontSize=16;" vertex="1" parent="dDjrmKRI1o8xEKc86vOI-48">
          <mxGeometry y="160" width="330" height="80" as="geometry" />
        </mxCell>
        <mxCell id="dDjrmKRI1o8xEKc86vOI-58" value="" style="shape=partialRectangle;html=1;whiteSpace=wrap;connectable=0;strokeColor=inherit;overflow=hidden;fillColor=none;top=0;left=0;bottom=0;right=0;pointerEvents=1;fontSize=16;" vertex="1" parent="dDjrmKRI1o8xEKc86vOI-57">
          <mxGeometry width="110" height="80" as="geometry">
            <mxRectangle width="110" height="80" as="alternateBounds" />
          </mxGeometry>
        </mxCell>
        <mxCell id="dDjrmKRI1o8xEKc86vOI-59" value="" style="shape=partialRectangle;html=1;whiteSpace=wrap;connectable=0;strokeColor=inherit;overflow=hidden;fillColor=none;top=0;left=0;bottom=0;right=0;pointerEvents=1;fontSize=16;" vertex="1" parent="dDjrmKRI1o8xEKc86vOI-57">
          <mxGeometry x="110" width="110" height="80" as="geometry">
            <mxRectangle width="110" height="80" as="alternateBounds" />
          </mxGeometry>
        </mxCell>
        <mxCell id="dDjrmKRI1o8xEKc86vOI-60" value="" style="shape=partialRectangle;html=1;whiteSpace=wrap;connectable=0;strokeColor=inherit;overflow=hidden;fillColor=none;top=0;left=0;bottom=0;right=0;pointerEvents=1;fontSize=16;" vertex="1" parent="dDjrmKRI1o8xEKc86vOI-57">
          <mxGeometry x="220" width="110" height="80" as="geometry">
            <mxRectangle width="110" height="80" as="alternateBounds" />
          </mxGeometry>
        </mxCell>
        <mxCell id="dDjrmKRI1o8xEKc86vOI-61" value="" style="shape=table;startSize=0;container=1;collapsible=0;childLayout=tableLayout;fontSize=16;" vertex="1" parent="1">
          <mxGeometry x="480" y="1320" width="330" height="240" as="geometry" />
        </mxCell>
        <mxCell id="dDjrmKRI1o8xEKc86vOI-62" value="" style="shape=tableRow;horizontal=0;startSize=0;swimlaneHead=0;swimlaneBody=0;strokeColor=inherit;top=0;left=0;bottom=0;right=0;collapsible=0;dropTarget=0;fillColor=none;points=[[0,0.5],[1,0.5]];portConstraint=eastwest;fontSize=16;" vertex="1" parent="dDjrmKRI1o8xEKc86vOI-61">
          <mxGeometry width="330" height="65" as="geometry" />
        </mxCell>
        <mxCell id="dDjrmKRI1o8xEKc86vOI-63" value="groud_id" style="shape=partialRectangle;html=1;whiteSpace=wrap;connectable=0;strokeColor=inherit;overflow=hidden;fillColor=none;top=0;left=0;bottom=0;right=0;pointerEvents=1;fontSize=16;" vertex="1" parent="dDjrmKRI1o8xEKc86vOI-62">
          <mxGeometry width="110" height="65" as="geometry">
            <mxRectangle width="110" height="65" as="alternateBounds" />
          </mxGeometry>
        </mxCell>
        <mxCell id="dDjrmKRI1o8xEKc86vOI-64" value="user_id" style="shape=partialRectangle;html=1;whiteSpace=wrap;connectable=0;strokeColor=inherit;overflow=hidden;fillColor=none;top=0;left=0;bottom=0;right=0;pointerEvents=1;fontSize=16;" vertex="1" parent="dDjrmKRI1o8xEKc86vOI-62">
          <mxGeometry x="110" width="110" height="65" as="geometry">
            <mxRectangle width="110" height="65" as="alternateBounds" />
          </mxGeometry>
        </mxCell>
        <mxCell id="dDjrmKRI1o8xEKc86vOI-65" value="" style="shape=partialRectangle;html=1;whiteSpace=wrap;connectable=0;strokeColor=inherit;overflow=hidden;fillColor=none;top=0;left=0;bottom=0;right=0;pointerEvents=1;fontSize=16;" vertex="1" parent="dDjrmKRI1o8xEKc86vOI-62">
          <mxGeometry x="220" width="110" height="65" as="geometry">
            <mxRectangle width="110" height="65" as="alternateBounds" />
          </mxGeometry>
        </mxCell>
        <mxCell id="dDjrmKRI1o8xEKc86vOI-66" value="" style="shape=tableRow;horizontal=0;startSize=0;swimlaneHead=0;swimlaneBody=0;strokeColor=inherit;top=0;left=0;bottom=0;right=0;collapsible=0;dropTarget=0;fillColor=none;points=[[0,0.5],[1,0.5]];portConstraint=eastwest;fontSize=16;" vertex="1" parent="dDjrmKRI1o8xEKc86vOI-61">
          <mxGeometry y="65" width="330" height="88" as="geometry" />
        </mxCell>
        <mxCell id="dDjrmKRI1o8xEKc86vOI-67" value="" style="shape=partialRectangle;html=1;whiteSpace=wrap;connectable=0;strokeColor=inherit;overflow=hidden;fillColor=none;top=0;left=0;bottom=0;right=0;pointerEvents=1;fontSize=16;" vertex="1" parent="dDjrmKRI1o8xEKc86vOI-66">
          <mxGeometry width="110" height="88" as="geometry">
            <mxRectangle width="110" height="88" as="alternateBounds" />
          </mxGeometry>
        </mxCell>
        <mxCell id="dDjrmKRI1o8xEKc86vOI-68" value="" style="shape=partialRectangle;html=1;whiteSpace=wrap;connectable=0;strokeColor=inherit;overflow=hidden;fillColor=none;top=0;left=0;bottom=0;right=0;pointerEvents=1;fontSize=16;" vertex="1" parent="dDjrmKRI1o8xEKc86vOI-66">
          <mxGeometry x="110" width="110" height="88" as="geometry">
            <mxRectangle width="110" height="88" as="alternateBounds" />
          </mxGeometry>
        </mxCell>
        <mxCell id="dDjrmKRI1o8xEKc86vOI-69" value="" style="shape=partialRectangle;html=1;whiteSpace=wrap;connectable=0;strokeColor=inherit;overflow=hidden;fillColor=none;top=0;left=0;bottom=0;right=0;pointerEvents=1;fontSize=16;" vertex="1" parent="dDjrmKRI1o8xEKc86vOI-66">
          <mxGeometry x="220" width="110" height="88" as="geometry">
            <mxRectangle width="110" height="88" as="alternateBounds" />
          </mxGeometry>
        </mxCell>
        <mxCell id="dDjrmKRI1o8xEKc86vOI-70" value="" style="shape=tableRow;horizontal=0;startSize=0;swimlaneHead=0;swimlaneBody=0;strokeColor=inherit;top=0;left=0;bottom=0;right=0;collapsible=0;dropTarget=0;fillColor=none;points=[[0,0.5],[1,0.5]];portConstraint=eastwest;fontSize=16;" vertex="1" parent="dDjrmKRI1o8xEKc86vOI-61">
          <mxGeometry y="153" width="330" height="87" as="geometry" />
        </mxCell>
        <mxCell id="dDjrmKRI1o8xEKc86vOI-71" value="" style="shape=partialRectangle;html=1;whiteSpace=wrap;connectable=0;strokeColor=inherit;overflow=hidden;fillColor=none;top=0;left=0;bottom=0;right=0;pointerEvents=1;fontSize=16;" vertex="1" parent="dDjrmKRI1o8xEKc86vOI-70">
          <mxGeometry width="110" height="87" as="geometry">
            <mxRectangle width="110" height="87" as="alternateBounds" />
          </mxGeometry>
        </mxCell>
        <mxCell id="dDjrmKRI1o8xEKc86vOI-72" value="" style="shape=partialRectangle;html=1;whiteSpace=wrap;connectable=0;strokeColor=inherit;overflow=hidden;fillColor=none;top=0;left=0;bottom=0;right=0;pointerEvents=1;fontSize=16;" vertex="1" parent="dDjrmKRI1o8xEKc86vOI-70">
          <mxGeometry x="110" width="110" height="87" as="geometry">
            <mxRectangle width="110" height="87" as="alternateBounds" />
          </mxGeometry>
        </mxCell>
        <mxCell id="dDjrmKRI1o8xEKc86vOI-73" value="" style="shape=partialRectangle;html=1;whiteSpace=wrap;connectable=0;strokeColor=inherit;overflow=hidden;fillColor=none;top=0;left=0;bottom=0;right=0;pointerEvents=1;fontSize=16;" vertex="1" parent="dDjrmKRI1o8xEKc86vOI-70">
          <mxGeometry x="220" width="110" height="87" as="geometry">
            <mxRectangle width="110" height="87" as="alternateBounds" />
          </mxGeometry>
        </mxCell>
        <mxCell id="dDjrmKRI1o8xEKc86vOI-82" value="" style="shape=table;startSize=0;container=1;collapsible=0;childLayout=tableLayout;fontSize=16;" vertex="1" parent="1">
          <mxGeometry x="120" y="1640" width="330" height="328" as="geometry" />
        </mxCell>
        <mxCell id="dDjrmKRI1o8xEKc86vOI-83" value="" style="shape=tableRow;horizontal=0;startSize=0;swimlaneHead=0;swimlaneBody=0;strokeColor=inherit;top=0;left=0;bottom=0;right=0;collapsible=0;dropTarget=0;fillColor=none;points=[[0,0.5],[1,0.5]];portConstraint=eastwest;fontSize=16;" vertex="1" parent="dDjrmKRI1o8xEKc86vOI-82">
          <mxGeometry width="330" height="65" as="geometry" />
        </mxCell>
        <mxCell id="dDjrmKRI1o8xEKc86vOI-84" value="user_id" style="shape=partialRectangle;html=1;whiteSpace=wrap;connectable=0;strokeColor=inherit;overflow=hidden;fillColor=none;top=0;left=0;bottom=0;right=0;pointerEvents=1;fontSize=16;" vertex="1" parent="dDjrmKRI1o8xEKc86vOI-83">
          <mxGeometry width="110" height="65" as="geometry">
            <mxRectangle width="110" height="65" as="alternateBounds" />
          </mxGeometry>
        </mxCell>
        <mxCell id="dDjrmKRI1o8xEKc86vOI-85" value="timestamp" style="shape=partialRectangle;html=1;whiteSpace=wrap;connectable=0;strokeColor=inherit;overflow=hidden;fillColor=none;top=0;left=0;bottom=0;right=0;pointerEvents=1;fontSize=16;" vertex="1" parent="dDjrmKRI1o8xEKc86vOI-83">
          <mxGeometry x="110" width="110" height="65" as="geometry">
            <mxRectangle width="110" height="65" as="alternateBounds" />
          </mxGeometry>
        </mxCell>
        <mxCell id="dDjrmKRI1o8xEKc86vOI-86" value="" style="shape=partialRectangle;html=1;whiteSpace=wrap;connectable=0;strokeColor=inherit;overflow=hidden;fillColor=none;top=0;left=0;bottom=0;right=0;pointerEvents=1;fontSize=16;" vertex="1" parent="dDjrmKRI1o8xEKc86vOI-83">
          <mxGeometry x="220" width="110" height="65" as="geometry">
            <mxRectangle width="110" height="65" as="alternateBounds" />
          </mxGeometry>
        </mxCell>
        <mxCell id="dDjrmKRI1o8xEKc86vOI-87" value="" style="shape=tableRow;horizontal=0;startSize=0;swimlaneHead=0;swimlaneBody=0;strokeColor=inherit;top=0;left=0;bottom=0;right=0;collapsible=0;dropTarget=0;fillColor=none;points=[[0,0.5],[1,0.5]];portConstraint=eastwest;fontSize=16;" vertex="1" parent="dDjrmKRI1o8xEKc86vOI-82">
          <mxGeometry y="65" width="330" height="88" as="geometry" />
        </mxCell>
        <mxCell id="dDjrmKRI1o8xEKc86vOI-88" value="" style="shape=partialRectangle;html=1;whiteSpace=wrap;connectable=0;strokeColor=inherit;overflow=hidden;fillColor=none;top=0;left=0;bottom=0;right=0;pointerEvents=1;fontSize=16;" vertex="1" parent="dDjrmKRI1o8xEKc86vOI-87">
          <mxGeometry width="110" height="88" as="geometry">
            <mxRectangle width="110" height="88" as="alternateBounds" />
          </mxGeometry>
        </mxCell>
        <mxCell id="dDjrmKRI1o8xEKc86vOI-89" value="" style="shape=partialRectangle;html=1;whiteSpace=wrap;connectable=0;strokeColor=inherit;overflow=hidden;fillColor=none;top=0;left=0;bottom=0;right=0;pointerEvents=1;fontSize=16;" vertex="1" parent="dDjrmKRI1o8xEKc86vOI-87">
          <mxGeometry x="110" width="110" height="88" as="geometry">
            <mxRectangle width="110" height="88" as="alternateBounds" />
          </mxGeometry>
        </mxCell>
        <mxCell id="dDjrmKRI1o8xEKc86vOI-90" value="" style="shape=partialRectangle;html=1;whiteSpace=wrap;connectable=0;strokeColor=inherit;overflow=hidden;fillColor=none;top=0;left=0;bottom=0;right=0;pointerEvents=1;fontSize=16;" vertex="1" parent="dDjrmKRI1o8xEKc86vOI-87">
          <mxGeometry x="220" width="110" height="88" as="geometry">
            <mxRectangle width="110" height="88" as="alternateBounds" />
          </mxGeometry>
        </mxCell>
        <mxCell id="dDjrmKRI1o8xEKc86vOI-91" value="" style="shape=tableRow;horizontal=0;startSize=0;swimlaneHead=0;swimlaneBody=0;strokeColor=inherit;top=0;left=0;bottom=0;right=0;collapsible=0;dropTarget=0;fillColor=none;points=[[0,0.5],[1,0.5]];portConstraint=eastwest;fontSize=16;" vertex="1" parent="dDjrmKRI1o8xEKc86vOI-82">
          <mxGeometry y="153" width="330" height="87" as="geometry" />
        </mxCell>
        <mxCell id="dDjrmKRI1o8xEKc86vOI-92" value="" style="shape=partialRectangle;html=1;whiteSpace=wrap;connectable=0;strokeColor=inherit;overflow=hidden;fillColor=none;top=0;left=0;bottom=0;right=0;pointerEvents=1;fontSize=16;" vertex="1" parent="dDjrmKRI1o8xEKc86vOI-91">
          <mxGeometry width="110" height="87" as="geometry">
            <mxRectangle width="110" height="87" as="alternateBounds" />
          </mxGeometry>
        </mxCell>
        <mxCell id="dDjrmKRI1o8xEKc86vOI-93" value="" style="shape=partialRectangle;html=1;whiteSpace=wrap;connectable=0;strokeColor=inherit;overflow=hidden;fillColor=none;top=0;left=0;bottom=0;right=0;pointerEvents=1;fontSize=16;" vertex="1" parent="dDjrmKRI1o8xEKc86vOI-91">
          <mxGeometry x="110" width="110" height="87" as="geometry">
            <mxRectangle width="110" height="87" as="alternateBounds" />
          </mxGeometry>
        </mxCell>
        <mxCell id="dDjrmKRI1o8xEKc86vOI-94" value="" style="shape=partialRectangle;html=1;whiteSpace=wrap;connectable=0;strokeColor=inherit;overflow=hidden;fillColor=none;top=0;left=0;bottom=0;right=0;pointerEvents=1;fontSize=16;" vertex="1" parent="dDjrmKRI1o8xEKc86vOI-91">
          <mxGeometry x="220" width="110" height="87" as="geometry">
            <mxRectangle width="110" height="87" as="alternateBounds" />
          </mxGeometry>
        </mxCell>
        <mxCell id="dDjrmKRI1o8xEKc86vOI-95" value="" style="shape=tableRow;horizontal=0;startSize=0;swimlaneHead=0;swimlaneBody=0;strokeColor=inherit;top=0;left=0;bottom=0;right=0;collapsible=0;dropTarget=0;fillColor=none;points=[[0,0.5],[1,0.5]];portConstraint=eastwest;fontSize=16;" vertex="1" parent="dDjrmKRI1o8xEKc86vOI-82">
          <mxGeometry y="240" width="330" height="88" as="geometry" />
        </mxCell>
        <mxCell id="dDjrmKRI1o8xEKc86vOI-96" value="" style="shape=partialRectangle;html=1;whiteSpace=wrap;connectable=0;strokeColor=inherit;overflow=hidden;fillColor=none;top=0;left=0;bottom=0;right=0;pointerEvents=1;fontSize=16;" vertex="1" parent="dDjrmKRI1o8xEKc86vOI-95">
          <mxGeometry width="110" height="88" as="geometry">
            <mxRectangle width="110" height="88" as="alternateBounds" />
          </mxGeometry>
        </mxCell>
        <mxCell id="dDjrmKRI1o8xEKc86vOI-97" value="" style="shape=partialRectangle;html=1;whiteSpace=wrap;connectable=0;strokeColor=inherit;overflow=hidden;fillColor=none;top=0;left=0;bottom=0;right=0;pointerEvents=1;fontSize=16;" vertex="1" parent="dDjrmKRI1o8xEKc86vOI-95">
          <mxGeometry x="110" width="110" height="88" as="geometry">
            <mxRectangle width="110" height="88" as="alternateBounds" />
          </mxGeometry>
        </mxCell>
        <mxCell id="dDjrmKRI1o8xEKc86vOI-98" value="" style="shape=partialRectangle;html=1;whiteSpace=wrap;connectable=0;strokeColor=inherit;overflow=hidden;fillColor=none;top=0;left=0;bottom=0;right=0;pointerEvents=1;fontSize=16;" vertex="1" parent="dDjrmKRI1o8xEKc86vOI-95">
          <mxGeometry x="220" width="110" height="88" as="geometry">
            <mxRectangle width="110" height="88" as="alternateBounds" />
          </mxGeometry>
        </mxCell>
        <mxCell id="dDjrmKRI1o8xEKc86vOI-99" value="" style="shape=table;startSize=0;container=1;collapsible=0;childLayout=tableLayout;fontSize=16;" vertex="1" parent="1">
          <mxGeometry x="495" y="1640" width="330" height="328" as="geometry" />
        </mxCell>
        <mxCell id="dDjrmKRI1o8xEKc86vOI-100" value="" style="shape=tableRow;horizontal=0;startSize=0;swimlaneHead=0;swimlaneBody=0;strokeColor=inherit;top=0;left=0;bottom=0;right=0;collapsible=0;dropTarget=0;fillColor=none;points=[[0,0.5],[1,0.5]];portConstraint=eastwest;fontSize=16;" vertex="1" parent="dDjrmKRI1o8xEKc86vOI-99">
          <mxGeometry width="330" height="65" as="geometry" />
        </mxCell>
        <mxCell id="dDjrmKRI1o8xEKc86vOI-101" value="user_id" style="shape=partialRectangle;html=1;whiteSpace=wrap;connectable=0;strokeColor=inherit;overflow=hidden;fillColor=none;top=0;left=0;bottom=0;right=0;pointerEvents=1;fontSize=16;" vertex="1" parent="dDjrmKRI1o8xEKc86vOI-100">
          <mxGeometry width="110" height="65" as="geometry">
            <mxRectangle width="110" height="65" as="alternateBounds" />
          </mxGeometry>
        </mxCell>
        <mxCell id="dDjrmKRI1o8xEKc86vOI-102" value="server_id" style="shape=partialRectangle;html=1;whiteSpace=wrap;connectable=0;strokeColor=inherit;overflow=hidden;fillColor=none;top=0;left=0;bottom=0;right=0;pointerEvents=1;fontSize=16;" vertex="1" parent="dDjrmKRI1o8xEKc86vOI-100">
          <mxGeometry x="110" width="110" height="65" as="geometry">
            <mxRectangle width="110" height="65" as="alternateBounds" />
          </mxGeometry>
        </mxCell>
        <mxCell id="dDjrmKRI1o8xEKc86vOI-103" value="" style="shape=partialRectangle;html=1;whiteSpace=wrap;connectable=0;strokeColor=inherit;overflow=hidden;fillColor=none;top=0;left=0;bottom=0;right=0;pointerEvents=1;fontSize=16;" vertex="1" parent="dDjrmKRI1o8xEKc86vOI-100">
          <mxGeometry x="220" width="110" height="65" as="geometry">
            <mxRectangle width="110" height="65" as="alternateBounds" />
          </mxGeometry>
        </mxCell>
        <mxCell id="dDjrmKRI1o8xEKc86vOI-104" value="" style="shape=tableRow;horizontal=0;startSize=0;swimlaneHead=0;swimlaneBody=0;strokeColor=inherit;top=0;left=0;bottom=0;right=0;collapsible=0;dropTarget=0;fillColor=none;points=[[0,0.5],[1,0.5]];portConstraint=eastwest;fontSize=16;" vertex="1" parent="dDjrmKRI1o8xEKc86vOI-99">
          <mxGeometry y="65" width="330" height="88" as="geometry" />
        </mxCell>
        <mxCell id="dDjrmKRI1o8xEKc86vOI-105" value="" style="shape=partialRectangle;html=1;whiteSpace=wrap;connectable=0;strokeColor=inherit;overflow=hidden;fillColor=none;top=0;left=0;bottom=0;right=0;pointerEvents=1;fontSize=16;" vertex="1" parent="dDjrmKRI1o8xEKc86vOI-104">
          <mxGeometry width="110" height="88" as="geometry">
            <mxRectangle width="110" height="88" as="alternateBounds" />
          </mxGeometry>
        </mxCell>
        <mxCell id="dDjrmKRI1o8xEKc86vOI-106" value="" style="shape=partialRectangle;html=1;whiteSpace=wrap;connectable=0;strokeColor=inherit;overflow=hidden;fillColor=none;top=0;left=0;bottom=0;right=0;pointerEvents=1;fontSize=16;" vertex="1" parent="dDjrmKRI1o8xEKc86vOI-104">
          <mxGeometry x="110" width="110" height="88" as="geometry">
            <mxRectangle width="110" height="88" as="alternateBounds" />
          </mxGeometry>
        </mxCell>
        <mxCell id="dDjrmKRI1o8xEKc86vOI-107" value="" style="shape=partialRectangle;html=1;whiteSpace=wrap;connectable=0;strokeColor=inherit;overflow=hidden;fillColor=none;top=0;left=0;bottom=0;right=0;pointerEvents=1;fontSize=16;" vertex="1" parent="dDjrmKRI1o8xEKc86vOI-104">
          <mxGeometry x="220" width="110" height="88" as="geometry">
            <mxRectangle width="110" height="88" as="alternateBounds" />
          </mxGeometry>
        </mxCell>
        <mxCell id="dDjrmKRI1o8xEKc86vOI-108" value="" style="shape=tableRow;horizontal=0;startSize=0;swimlaneHead=0;swimlaneBody=0;strokeColor=inherit;top=0;left=0;bottom=0;right=0;collapsible=0;dropTarget=0;fillColor=none;points=[[0,0.5],[1,0.5]];portConstraint=eastwest;fontSize=16;" vertex="1" parent="dDjrmKRI1o8xEKc86vOI-99">
          <mxGeometry y="153" width="330" height="87" as="geometry" />
        </mxCell>
        <mxCell id="dDjrmKRI1o8xEKc86vOI-109" value="" style="shape=partialRectangle;html=1;whiteSpace=wrap;connectable=0;strokeColor=inherit;overflow=hidden;fillColor=none;top=0;left=0;bottom=0;right=0;pointerEvents=1;fontSize=16;" vertex="1" parent="dDjrmKRI1o8xEKc86vOI-108">
          <mxGeometry width="110" height="87" as="geometry">
            <mxRectangle width="110" height="87" as="alternateBounds" />
          </mxGeometry>
        </mxCell>
        <mxCell id="dDjrmKRI1o8xEKc86vOI-110" value="" style="shape=partialRectangle;html=1;whiteSpace=wrap;connectable=0;strokeColor=inherit;overflow=hidden;fillColor=none;top=0;left=0;bottom=0;right=0;pointerEvents=1;fontSize=16;" vertex="1" parent="dDjrmKRI1o8xEKc86vOI-108">
          <mxGeometry x="110" width="110" height="87" as="geometry">
            <mxRectangle width="110" height="87" as="alternateBounds" />
          </mxGeometry>
        </mxCell>
        <mxCell id="dDjrmKRI1o8xEKc86vOI-111" value="" style="shape=partialRectangle;html=1;whiteSpace=wrap;connectable=0;strokeColor=inherit;overflow=hidden;fillColor=none;top=0;left=0;bottom=0;right=0;pointerEvents=1;fontSize=16;" vertex="1" parent="dDjrmKRI1o8xEKc86vOI-108">
          <mxGeometry x="220" width="110" height="87" as="geometry">
            <mxRectangle width="110" height="87" as="alternateBounds" />
          </mxGeometry>
        </mxCell>
        <mxCell id="dDjrmKRI1o8xEKc86vOI-112" value="" style="shape=tableRow;horizontal=0;startSize=0;swimlaneHead=0;swimlaneBody=0;strokeColor=inherit;top=0;left=0;bottom=0;right=0;collapsible=0;dropTarget=0;fillColor=none;points=[[0,0.5],[1,0.5]];portConstraint=eastwest;fontSize=16;" vertex="1" parent="dDjrmKRI1o8xEKc86vOI-99">
          <mxGeometry y="240" width="330" height="88" as="geometry" />
        </mxCell>
        <mxCell id="dDjrmKRI1o8xEKc86vOI-113" value="" style="shape=partialRectangle;html=1;whiteSpace=wrap;connectable=0;strokeColor=inherit;overflow=hidden;fillColor=none;top=0;left=0;bottom=0;right=0;pointerEvents=1;fontSize=16;" vertex="1" parent="dDjrmKRI1o8xEKc86vOI-112">
          <mxGeometry width="110" height="88" as="geometry">
            <mxRectangle width="110" height="88" as="alternateBounds" />
          </mxGeometry>
        </mxCell>
        <mxCell id="dDjrmKRI1o8xEKc86vOI-114" value="" style="shape=partialRectangle;html=1;whiteSpace=wrap;connectable=0;strokeColor=inherit;overflow=hidden;fillColor=none;top=0;left=0;bottom=0;right=0;pointerEvents=1;fontSize=16;" vertex="1" parent="dDjrmKRI1o8xEKc86vOI-112">
          <mxGeometry x="110" width="110" height="88" as="geometry">
            <mxRectangle width="110" height="88" as="alternateBounds" />
          </mxGeometry>
        </mxCell>
        <mxCell id="dDjrmKRI1o8xEKc86vOI-115" value="" style="shape=partialRectangle;html=1;whiteSpace=wrap;connectable=0;strokeColor=inherit;overflow=hidden;fillColor=none;top=0;left=0;bottom=0;right=0;pointerEvents=1;fontSize=16;" vertex="1" parent="dDjrmKRI1o8xEKc86vOI-112">
          <mxGeometry x="220" width="110" height="88" as="geometry">
            <mxRectangle width="110" height="88" as="alternateBounds" />
          </mxGeometry>
        </mxCell>
        <mxCell id="dDjrmKRI1o8xEKc86vOI-116" value="" style="shape=table;startSize=0;container=1;collapsible=0;childLayout=tableLayout;fontSize=16;" vertex="1" parent="1">
          <mxGeometry x="110" y="2040" width="330" height="568" as="geometry" />
        </mxCell>
        <mxCell id="dDjrmKRI1o8xEKc86vOI-117" value="" style="shape=tableRow;horizontal=0;startSize=0;swimlaneHead=0;swimlaneBody=0;strokeColor=inherit;top=0;left=0;bottom=0;right=0;collapsible=0;dropTarget=0;fillColor=none;points=[[0,0.5],[1,0.5]];portConstraint=eastwest;fontSize=16;" vertex="1" parent="dDjrmKRI1o8xEKc86vOI-116">
          <mxGeometry width="330" height="65" as="geometry" />
        </mxCell>
        <mxCell id="dDjrmKRI1o8xEKc86vOI-118" value="message_id" style="shape=partialRectangle;html=1;whiteSpace=wrap;connectable=0;strokeColor=inherit;overflow=hidden;fillColor=none;top=0;left=0;bottom=0;right=0;pointerEvents=1;fontSize=16;" vertex="1" parent="dDjrmKRI1o8xEKc86vOI-117">
          <mxGeometry width="110" height="65" as="geometry">
            <mxRectangle width="110" height="65" as="alternateBounds" />
          </mxGeometry>
        </mxCell>
        <mxCell id="dDjrmKRI1o8xEKc86vOI-119" value="sent_to_id" style="shape=partialRectangle;html=1;whiteSpace=wrap;connectable=0;strokeColor=inherit;overflow=hidden;fillColor=none;top=0;left=0;bottom=0;right=0;pointerEvents=1;fontSize=16;" vertex="1" parent="dDjrmKRI1o8xEKc86vOI-117">
          <mxGeometry x="110" width="110" height="65" as="geometry">
            <mxRectangle width="110" height="65" as="alternateBounds" />
          </mxGeometry>
        </mxCell>
        <mxCell id="dDjrmKRI1o8xEKc86vOI-120" value="send_from_id" style="shape=partialRectangle;html=1;whiteSpace=wrap;connectable=0;strokeColor=inherit;overflow=hidden;fillColor=none;top=0;left=0;bottom=0;right=0;pointerEvents=1;fontSize=16;" vertex="1" parent="dDjrmKRI1o8xEKc86vOI-117">
          <mxGeometry x="220" width="110" height="65" as="geometry">
            <mxRectangle width="110" height="65" as="alternateBounds" />
          </mxGeometry>
        </mxCell>
        <mxCell id="dDjrmKRI1o8xEKc86vOI-121" value="" style="shape=tableRow;horizontal=0;startSize=0;swimlaneHead=0;swimlaneBody=0;strokeColor=inherit;top=0;left=0;bottom=0;right=0;collapsible=0;dropTarget=0;fillColor=none;points=[[0,0.5],[1,0.5]];portConstraint=eastwest;fontSize=16;" vertex="1" parent="dDjrmKRI1o8xEKc86vOI-116">
          <mxGeometry y="65" width="330" height="88" as="geometry" />
        </mxCell>
        <mxCell id="dDjrmKRI1o8xEKc86vOI-122" value="" style="shape=partialRectangle;html=1;whiteSpace=wrap;connectable=0;strokeColor=inherit;overflow=hidden;fillColor=none;top=0;left=0;bottom=0;right=0;pointerEvents=1;fontSize=16;" vertex="1" parent="dDjrmKRI1o8xEKc86vOI-121">
          <mxGeometry width="110" height="88" as="geometry">
            <mxRectangle width="110" height="88" as="alternateBounds" />
          </mxGeometry>
        </mxCell>
        <mxCell id="dDjrmKRI1o8xEKc86vOI-123" value="" style="shape=partialRectangle;html=1;whiteSpace=wrap;connectable=0;strokeColor=inherit;overflow=hidden;fillColor=none;top=0;left=0;bottom=0;right=0;pointerEvents=1;fontSize=16;" vertex="1" parent="dDjrmKRI1o8xEKc86vOI-121">
          <mxGeometry x="110" width="110" height="88" as="geometry">
            <mxRectangle width="110" height="88" as="alternateBounds" />
          </mxGeometry>
        </mxCell>
        <mxCell id="dDjrmKRI1o8xEKc86vOI-124" value="" style="shape=partialRectangle;html=1;whiteSpace=wrap;connectable=0;strokeColor=inherit;overflow=hidden;fillColor=none;top=0;left=0;bottom=0;right=0;pointerEvents=1;fontSize=16;" vertex="1" parent="dDjrmKRI1o8xEKc86vOI-121">
          <mxGeometry x="220" width="110" height="88" as="geometry">
            <mxRectangle width="110" height="88" as="alternateBounds" />
          </mxGeometry>
        </mxCell>
        <mxCell id="dDjrmKRI1o8xEKc86vOI-125" value="" style="shape=tableRow;horizontal=0;startSize=0;swimlaneHead=0;swimlaneBody=0;strokeColor=inherit;top=0;left=0;bottom=0;right=0;collapsible=0;dropTarget=0;fillColor=none;points=[[0,0.5],[1,0.5]];portConstraint=eastwest;fontSize=16;" vertex="1" parent="dDjrmKRI1o8xEKc86vOI-116">
          <mxGeometry y="153" width="330" height="87" as="geometry" />
        </mxCell>
        <mxCell id="dDjrmKRI1o8xEKc86vOI-126" value="" style="shape=partialRectangle;html=1;whiteSpace=wrap;connectable=0;strokeColor=inherit;overflow=hidden;fillColor=none;top=0;left=0;bottom=0;right=0;pointerEvents=1;fontSize=16;" vertex="1" parent="dDjrmKRI1o8xEKc86vOI-125">
          <mxGeometry width="110" height="87" as="geometry">
            <mxRectangle width="110" height="87" as="alternateBounds" />
          </mxGeometry>
        </mxCell>
        <mxCell id="dDjrmKRI1o8xEKc86vOI-127" value="" style="shape=partialRectangle;html=1;whiteSpace=wrap;connectable=0;strokeColor=inherit;overflow=hidden;fillColor=none;top=0;left=0;bottom=0;right=0;pointerEvents=1;fontSize=16;" vertex="1" parent="dDjrmKRI1o8xEKc86vOI-125">
          <mxGeometry x="110" width="110" height="87" as="geometry">
            <mxRectangle width="110" height="87" as="alternateBounds" />
          </mxGeometry>
        </mxCell>
        <mxCell id="dDjrmKRI1o8xEKc86vOI-128" value="" style="shape=partialRectangle;html=1;whiteSpace=wrap;connectable=0;strokeColor=inherit;overflow=hidden;fillColor=none;top=0;left=0;bottom=0;right=0;pointerEvents=1;fontSize=16;" vertex="1" parent="dDjrmKRI1o8xEKc86vOI-125">
          <mxGeometry x="220" width="110" height="87" as="geometry">
            <mxRectangle width="110" height="87" as="alternateBounds" />
          </mxGeometry>
        </mxCell>
        <mxCell id="dDjrmKRI1o8xEKc86vOI-129" value="" style="shape=tableRow;horizontal=0;startSize=0;swimlaneHead=0;swimlaneBody=0;strokeColor=inherit;top=0;left=0;bottom=0;right=0;collapsible=0;dropTarget=0;fillColor=none;points=[[0,0.5],[1,0.5]];portConstraint=eastwest;fontSize=16;" vertex="1" parent="dDjrmKRI1o8xEKc86vOI-116">
          <mxGeometry y="240" width="330" height="88" as="geometry" />
        </mxCell>
        <mxCell id="dDjrmKRI1o8xEKc86vOI-130" value="" style="shape=partialRectangle;html=1;whiteSpace=wrap;connectable=0;strokeColor=inherit;overflow=hidden;fillColor=none;top=0;left=0;bottom=0;right=0;pointerEvents=1;fontSize=16;" vertex="1" parent="dDjrmKRI1o8xEKc86vOI-129">
          <mxGeometry width="110" height="88" as="geometry">
            <mxRectangle width="110" height="88" as="alternateBounds" />
          </mxGeometry>
        </mxCell>
        <mxCell id="dDjrmKRI1o8xEKc86vOI-131" value="" style="shape=partialRectangle;html=1;whiteSpace=wrap;connectable=0;strokeColor=inherit;overflow=hidden;fillColor=none;top=0;left=0;bottom=0;right=0;pointerEvents=1;fontSize=16;" vertex="1" parent="dDjrmKRI1o8xEKc86vOI-129">
          <mxGeometry x="110" width="110" height="88" as="geometry">
            <mxRectangle width="110" height="88" as="alternateBounds" />
          </mxGeometry>
        </mxCell>
        <mxCell id="dDjrmKRI1o8xEKc86vOI-132" value="" style="shape=partialRectangle;html=1;whiteSpace=wrap;connectable=0;strokeColor=inherit;overflow=hidden;fillColor=none;top=0;left=0;bottom=0;right=0;pointerEvents=1;fontSize=16;" vertex="1" parent="dDjrmKRI1o8xEKc86vOI-129">
          <mxGeometry x="220" width="110" height="88" as="geometry">
            <mxRectangle width="110" height="88" as="alternateBounds" />
          </mxGeometry>
        </mxCell>
        <mxCell id="dDjrmKRI1o8xEKc86vOI-151" value="" style="shape=tableRow;horizontal=0;startSize=0;swimlaneHead=0;swimlaneBody=0;strokeColor=inherit;top=0;left=0;bottom=0;right=0;collapsible=0;dropTarget=0;fillColor=none;points=[[0,0.5],[1,0.5]];portConstraint=eastwest;fontSize=16;" vertex="1" parent="dDjrmKRI1o8xEKc86vOI-116">
          <mxGeometry y="328" width="330" height="88" as="geometry" />
        </mxCell>
        <mxCell id="dDjrmKRI1o8xEKc86vOI-152" value="" style="shape=partialRectangle;html=1;whiteSpace=wrap;connectable=0;strokeColor=inherit;overflow=hidden;fillColor=none;top=0;left=0;bottom=0;right=0;pointerEvents=1;fontSize=16;" vertex="1" parent="dDjrmKRI1o8xEKc86vOI-151">
          <mxGeometry width="110" height="88" as="geometry">
            <mxRectangle width="110" height="88" as="alternateBounds" />
          </mxGeometry>
        </mxCell>
        <mxCell id="dDjrmKRI1o8xEKc86vOI-153" value="" style="shape=partialRectangle;html=1;whiteSpace=wrap;connectable=0;strokeColor=inherit;overflow=hidden;fillColor=none;top=0;left=0;bottom=0;right=0;pointerEvents=1;fontSize=16;" vertex="1" parent="dDjrmKRI1o8xEKc86vOI-151">
          <mxGeometry x="110" width="110" height="88" as="geometry">
            <mxRectangle width="110" height="88" as="alternateBounds" />
          </mxGeometry>
        </mxCell>
        <mxCell id="dDjrmKRI1o8xEKc86vOI-154" value="" style="shape=partialRectangle;html=1;whiteSpace=wrap;connectable=0;strokeColor=inherit;overflow=hidden;fillColor=none;top=0;left=0;bottom=0;right=0;pointerEvents=1;fontSize=16;" vertex="1" parent="dDjrmKRI1o8xEKc86vOI-151">
          <mxGeometry x="220" width="110" height="88" as="geometry">
            <mxRectangle width="110" height="88" as="alternateBounds" />
          </mxGeometry>
        </mxCell>
        <mxCell id="dDjrmKRI1o8xEKc86vOI-155" value="" style="shape=tableRow;horizontal=0;startSize=0;swimlaneHead=0;swimlaneBody=0;strokeColor=inherit;top=0;left=0;bottom=0;right=0;collapsible=0;dropTarget=0;fillColor=none;points=[[0,0.5],[1,0.5]];portConstraint=eastwest;fontSize=16;" vertex="1" parent="dDjrmKRI1o8xEKc86vOI-116">
          <mxGeometry y="416" width="330" height="87" as="geometry" />
        </mxCell>
        <mxCell id="dDjrmKRI1o8xEKc86vOI-156" value="" style="shape=partialRectangle;html=1;whiteSpace=wrap;connectable=0;strokeColor=inherit;overflow=hidden;fillColor=none;top=0;left=0;bottom=0;right=0;pointerEvents=1;fontSize=16;" vertex="1" parent="dDjrmKRI1o8xEKc86vOI-155">
          <mxGeometry width="110" height="87" as="geometry">
            <mxRectangle width="110" height="87" as="alternateBounds" />
          </mxGeometry>
        </mxCell>
        <mxCell id="dDjrmKRI1o8xEKc86vOI-157" value="" style="shape=partialRectangle;html=1;whiteSpace=wrap;connectable=0;strokeColor=inherit;overflow=hidden;fillColor=none;top=0;left=0;bottom=0;right=0;pointerEvents=1;fontSize=16;" vertex="1" parent="dDjrmKRI1o8xEKc86vOI-155">
          <mxGeometry x="110" width="110" height="87" as="geometry">
            <mxRectangle width="110" height="87" as="alternateBounds" />
          </mxGeometry>
        </mxCell>
        <mxCell id="dDjrmKRI1o8xEKc86vOI-158" value="" style="shape=partialRectangle;html=1;whiteSpace=wrap;connectable=0;strokeColor=inherit;overflow=hidden;fillColor=none;top=0;left=0;bottom=0;right=0;pointerEvents=1;fontSize=16;" vertex="1" parent="dDjrmKRI1o8xEKc86vOI-155">
          <mxGeometry x="220" width="110" height="87" as="geometry">
            <mxRectangle width="110" height="87" as="alternateBounds" />
          </mxGeometry>
        </mxCell>
        <mxCell id="dDjrmKRI1o8xEKc86vOI-159" value="" style="shape=tableRow;horizontal=0;startSize=0;swimlaneHead=0;swimlaneBody=0;strokeColor=inherit;top=0;left=0;bottom=0;right=0;collapsible=0;dropTarget=0;fillColor=none;points=[[0,0.5],[1,0.5]];portConstraint=eastwest;fontSize=16;" vertex="1" parent="dDjrmKRI1o8xEKc86vOI-116">
          <mxGeometry y="503" width="330" height="65" as="geometry" />
        </mxCell>
        <mxCell id="dDjrmKRI1o8xEKc86vOI-160" value="" style="shape=partialRectangle;html=1;whiteSpace=wrap;connectable=0;strokeColor=inherit;overflow=hidden;fillColor=none;top=0;left=0;bottom=0;right=0;pointerEvents=1;fontSize=16;" vertex="1" parent="dDjrmKRI1o8xEKc86vOI-159">
          <mxGeometry width="110" height="65" as="geometry">
            <mxRectangle width="110" height="65" as="alternateBounds" />
          </mxGeometry>
        </mxCell>
        <mxCell id="dDjrmKRI1o8xEKc86vOI-161" value="" style="shape=partialRectangle;html=1;whiteSpace=wrap;connectable=0;strokeColor=inherit;overflow=hidden;fillColor=none;top=0;left=0;bottom=0;right=0;pointerEvents=1;fontSize=16;" vertex="1" parent="dDjrmKRI1o8xEKc86vOI-159">
          <mxGeometry x="110" width="110" height="65" as="geometry">
            <mxRectangle width="110" height="65" as="alternateBounds" />
          </mxGeometry>
        </mxCell>
        <mxCell id="dDjrmKRI1o8xEKc86vOI-162" value="" style="shape=partialRectangle;html=1;whiteSpace=wrap;connectable=0;strokeColor=inherit;overflow=hidden;fillColor=none;top=0;left=0;bottom=0;right=0;pointerEvents=1;fontSize=16;" vertex="1" parent="dDjrmKRI1o8xEKc86vOI-159">
          <mxGeometry x="220" width="110" height="65" as="geometry">
            <mxRectangle width="110" height="65" as="alternateBounds" />
          </mxGeometry>
        </mxCell>
        <mxCell id="dDjrmKRI1o8xEKc86vOI-167" value="content" style="whiteSpace=wrap;html=1;" vertex="1" parent="1">
          <mxGeometry x="440" y="2040" width="120" height="60" as="geometry" />
        </mxCell>
        <mxCell id="dDjrmKRI1o8xEKc86vOI-168" value="media unit" style="whiteSpace=wrap;html=1;" vertex="1" parent="1">
          <mxGeometry x="560" y="2040" width="120" height="60" as="geometry" />
        </mxCell>
        <mxCell id="dDjrmKRI1o8xEKc86vOI-169" value="time stamp" style="whiteSpace=wrap;html=1;" vertex="1" parent="1">
          <mxGeometry x="680" y="2040" width="120" height="60" as="geometry" />
        </mxCell>
        <mxCell id="dDjrmKRI1o8xEKc86vOI-170" value="" style="whiteSpace=wrap;html=1;" vertex="1" parent="1">
          <mxGeometry x="440" y="2100" width="120" height="60" as="geometry" />
        </mxCell>
        <mxCell id="dDjrmKRI1o8xEKc86vOI-171" value="" style="whiteSpace=wrap;html=1;" vertex="1" parent="1">
          <mxGeometry x="560" y="2100" width="120" height="60" as="geometry" />
        </mxCell>
        <mxCell id="dDjrmKRI1o8xEKc86vOI-172" value="" style="whiteSpace=wrap;html=1;" vertex="1" parent="1">
          <mxGeometry x="680" y="2100" width="120" height="60" as="geometry" />
        </mxCell>
        <mxCell id="dDjrmKRI1o8xEKc86vOI-173" value="" style="whiteSpace=wrap;html=1;" vertex="1" parent="1">
          <mxGeometry x="440" y="2160" width="120" height="60" as="geometry" />
        </mxCell>
        <mxCell id="dDjrmKRI1o8xEKc86vOI-174" value="" style="whiteSpace=wrap;html=1;" vertex="1" parent="1">
          <mxGeometry x="560" y="2160" width="120" height="60" as="geometry" />
        </mxCell>
        <mxCell id="dDjrmKRI1o8xEKc86vOI-175" value="" style="whiteSpace=wrap;html=1;" vertex="1" parent="1">
          <mxGeometry x="680" y="2160" width="120" height="60" as="geometry" />
        </mxCell>
      </root>
    </mxGraphModel>
  </diagram>
</mxfile>
